<svg viewBox="0 0 244 262" fill="none" xmlns="http://www.w3.org/2000/svg">
<g filter="url(#filter0_d_84_150)">
<path d="M105.442 53.8681C95.4199 55.8019 84.9274 46.0947 82.006 32.1864C79.0845 18.2781 84.8404 5.43548 94.8621 3.5016C104.884 1.56772 115.376 11.2749 118.298 25.1832C121.219 39.0915 115.463 51.9342 105.442 53.8681Z" fill="#DBEAFE" stroke="#DBEAFE" stroke-width="2.66965"/>
<path d="M141.846 43.4501C135.26 42.9119 130.407 35.0325 131.006 25.851C131.604 16.6696 137.429 9.66283 144.015 10.2011C150.601 10.7393 155.454 18.6186 154.856 27.8001C154.257 36.9816 148.432 43.9883 141.846 43.4501Z" fill="#DBEAFE" stroke="#DBEAFE" stroke-width="1.72838"/>
<path d="M172.416 52.1483C166.795 49.6848 164.816 41.0646 167.995 32.8945C171.175 24.7245 178.309 20.0985 183.93 22.562C189.55 25.0256 191.529 33.6458 188.35 41.8158C185.17 49.9859 178.036 54.6119 172.416 52.1483Z" fill="#DBEAFE" stroke="#DBEAFE" stroke-width="1.62588"/>
<path d="M199.063 66.4921C194.115 63.5609 193.255 55.3167 197.142 48.0783C201.029 40.8399 208.192 37.3482 213.14 40.2795C218.089 43.2108 218.949 51.4549 215.062 58.6934C211.174 65.9318 204.011 69.4234 199.063 66.4921Z" fill="#DBEAFE" stroke="#DBEAFE" stroke-width="1.52375"/>
<path d="M223.064 84.3001C218.764 81.8121 218.016 74.8149 221.394 68.6712C224.773 62.5276 230.998 59.564 235.298 62.052C239.599 64.5399 240.346 71.5372 236.968 77.6809C233.59 83.8245 227.365 86.788 223.064 84.3001Z" fill="#DBEAFE" stroke="#DBEAFE" stroke-width="1.30826"/>
<path d="M156.785 168.403C138.211 187.041 119.604 205.645 100.964 224.216L119.364 242.616C132.945 256.197 156.324 254.684 171.786 239.222C187.247 223.761 188.761 200.379 175.18 186.798L156.785 168.403Z" fill="#DBEAFE" stroke="#DBEAFE" stroke-width="3.14896"/>
<path d="M33.6479 156.9C52.2136 138.256 70.8561 119.687 89.4925 101.111L71.0872 82.7056C57.5062 69.1245 34.1271 70.6381 18.6656 86.0995C3.20417 101.561 1.69054 124.943 15.2716 138.524L33.6479 156.9Z" fill="#607DFA" stroke="#607DFA" stroke-width="3.14896"/>
<path d="M100.988 101.082C119.66 119.618 138.2 138.291 156.82 156.884L175.18 138.524C188.761 124.943 187.247 101.561 171.786 86.0995C156.324 70.6381 132.945 69.1245 119.364 82.7056L100.988 101.082Z" fill="#607DFA" stroke="#607DFA" stroke-width="3.14896"/>
<path d="M151.042 162.661L95.2271 106.845L39.4087 162.661L95.2271 218.477L151.042 162.661Z" fill="#607DFA" stroke="#607DFA" stroke-width="3.14896"/>
<path d="M89.4554 224.248C70.7967 205.699 52.2543 187.028 33.6345 168.435L15.2716 186.798C1.69054 200.379 3.20417 223.761 18.6656 239.222C34.1271 254.684 57.5062 256.197 71.0872 242.616L89.4554 224.248Z" fill="#DBEAFE" stroke="#DBEAFE" stroke-width="3.14896"/>
<path d="M98.905 167.471C101.25 165.126 101.25 161.324 98.9049 158.979C96.5601 156.634 92.7584 156.634 90.4136 158.979C88.0688 161.324 88.0688 165.126 90.4136 167.471C92.7584 169.815 96.5602 169.815 98.905 167.471Z" fill="#151A31" stroke="#151A31" stroke-width="1.35864"/>
<path d="M96.5197 200.772C98.8645 198.427 98.8645 194.626 96.5197 192.281C94.1749 189.936 90.3732 189.936 88.0284 192.281C85.6835 194.625 85.6836 198.427 88.0284 200.772C90.3733 203.117 94.1749 203.117 96.5197 200.772Z" fill="#151A31" stroke="#151A31" stroke-width="1.35864"/>
<path d="M133.507 163.785C135.851 161.44 135.851 157.638 133.507 155.294C131.162 152.949 127.36 152.949 125.015 155.294C122.67 157.638 122.67 161.44 125.015 163.785C127.36 166.13 131.162 166.13 133.507 163.785Z" fill="#151A31" stroke="#151A31" stroke-width="1.35864"/>
<path d="M65.436 170.028C67.7809 167.683 67.7808 163.882 65.436 161.537C63.0912 159.192 59.2895 159.192 56.9447 161.537C54.5998 163.882 54.5998 167.683 56.9446 170.028C59.2895 172.373 63.0912 172.373 65.436 170.028Z" fill="#151A31" stroke="#151A31" stroke-width="1.35864"/>
<path d="M102.423 133.041C104.768 130.696 104.768 126.895 102.423 124.55C100.078 122.205 96.2765 122.205 93.9317 124.55C91.5869 126.895 91.5869 130.696 93.9317 133.041C96.2765 135.386 100.078 135.386 102.423 133.041Z" fill="#151A31" stroke="#151A31" stroke-width="1.35864"/>
</g>
<defs>
<filter id="filter0_d_84_150" x="0.423523" y="1.9249" width="243.308" height="259.539" filterUnits="userSpaceOnUse" color-interpolation-filters="sRGB">
<feFlood flood-opacity="0" result="BackgroundImageFix"/>
<feColorMatrix in="SourceAlpha" type="matrix" values="0 0 0 0 0 0 0 0 0 0 0 0 0 0 0 0 0 0 127 0" result="hardAlpha"/>
<feOffset dy="4"/>
<feGaussianBlur stdDeviation="2"/>
<feComposite in2="hardAlpha" operator="out"/>
<feColorMatrix type="matrix" values="0 0 0 0 0 0 0 0 0 0 0 0 0 0 0 0 0 0 0.25 0"/>
<feBlend mode="normal" in2="BackgroundImageFix" result="effect1_dropShadow_84_150"/>
<feBlend mode="normal" in="SourceGraphic" in2="effect1_dropShadow_84_150" result="shape"/>
</filter>
</defs>
</svg>
