<svg viewBox="0 0 1108 262" fill="none" xmlns="http://www.w3.org/2000/svg">
<g filter="url(#filter0_d_80_275)">
<rect x="303" y="2" width="14" height="252" fill="currentColor"/>
</g>
<g filter="url(#filter1_d_80_275)">
<path d="M425.288 36.0959V47.7866H400.883V60.416H419.144V71.7653H400.883V96H386.291V36.0959H425.288ZM465.555 96.5973C459.923 96.5973 454.746 95.2889 450.024 92.672C445.359 90.0551 441.633 86.4142 438.845 81.7493C436.115 77.0275 434.749 71.7369 434.749 65.8773C434.749 60.0177 436.115 54.7555 438.845 50.0906C441.633 45.4257 445.359 41.7848 450.024 39.1679C454.746 36.551 459.923 35.2426 465.555 35.2426C471.187 35.2426 476.335 36.551 481 39.1679C485.722 41.7848 489.42 45.4257 492.093 50.0906C494.824 54.7555 496.189 60.0177 496.189 65.8773C496.189 71.7369 494.824 77.0275 492.093 81.7493C489.363 86.4142 485.665 90.0551 481 92.672C476.335 95.2889 471.187 96.5973 465.555 96.5973ZM465.555 83.2853C470.333 83.2853 474.145 81.6924 476.989 78.5066C479.891 75.3209 481.341 71.1111 481.341 65.8773C481.341 60.5866 479.891 56.3768 476.989 53.248C474.145 50.0622 470.333 48.4693 465.555 48.4693C460.719 48.4693 456.851 50.0337 453.949 53.1626C451.105 56.2915 449.683 60.5297 449.683 65.8773C449.683 71.168 451.105 75.4062 453.949 78.592C456.851 81.7209 460.719 83.2853 465.555 83.2853ZM536.905 96.5973C531.273 96.5973 526.096 95.2889 521.374 92.672C516.709 90.0551 512.983 86.4142 510.195 81.7493C507.465 77.0275 506.099 71.7369 506.099 65.8773C506.099 60.0177 507.465 54.7555 510.195 50.0906C512.983 45.4257 516.709 41.7848 521.374 39.1679C526.096 36.551 531.273 35.2426 536.905 35.2426C542.537 35.2426 547.685 36.551 552.35 39.1679C557.072 41.7848 560.77 45.4257 563.444 50.0906C566.174 54.7555 567.54 60.0177 567.54 65.8773C567.54 71.7369 566.174 77.0275 563.444 81.7493C560.713 86.4142 557.015 90.0551 552.35 92.672C547.685 95.2889 542.537 96.5973 536.905 96.5973ZM536.905 83.2853C541.684 83.2853 545.495 81.6924 548.34 78.5066C551.241 75.3209 552.692 71.1111 552.692 65.8773C552.692 60.5866 551.241 56.3768 548.34 53.248C545.495 50.0622 541.684 48.4693 536.905 48.4693C532.069 48.4693 528.201 50.0337 525.299 53.1626C522.455 56.2915 521.033 60.5297 521.033 65.8773C521.033 71.168 522.455 75.4062 525.299 78.592C528.201 81.7209 532.069 83.2853 536.905 83.2853ZM623.018 36.0959V47.7866H607.146V96H592.554V47.7866H576.682V36.0959H623.018ZM702.782 96L697.235 90.624C691.717 94.8338 685.118 96.9387 677.438 96.9387C672.83 96.9387 668.819 96.1991 665.406 94.72C661.992 93.184 659.347 91.0507 657.47 88.32C655.649 85.5324 654.739 82.2898 654.739 78.592C654.739 74.8373 655.735 71.4524 657.726 68.4373C659.774 65.3653 662.817 62.8622 666.856 60.928C665.377 59.1075 664.325 57.3724 663.699 55.7226C663.073 54.016 662.76 52.1671 662.76 50.176C662.76 47.3315 663.5 44.7431 664.979 42.4106C666.458 40.0782 668.591 38.2577 671.379 36.9493C674.223 35.5839 677.58 34.9013 681.448 34.9013C685.374 34.9013 688.702 35.6124 691.432 37.0346C694.163 38.4568 696.211 40.3626 697.576 42.7519C698.942 45.1413 699.567 47.7582 699.454 50.6026H685.715C685.772 49.0666 685.374 47.9004 684.52 47.1039C683.724 46.2506 682.643 45.8239 681.278 45.8239C679.912 45.8239 678.775 46.2222 677.864 47.0186C676.954 47.8151 676.499 48.8391 676.499 50.0906C676.499 51.2853 676.869 52.5368 677.608 53.8453C678.405 55.1537 679.628 56.6613 681.278 58.368L695.87 72.6186C695.983 72.3342 696.126 71.9929 696.296 71.5946C696.524 71.1964 696.751 70.7413 696.979 70.2293L700.136 64.8533H714.728L710.632 72.2773C709.096 75.6338 707.333 78.8195 705.342 81.8347L719.763 96H702.782ZM678.12 85.1627C681.932 85.1627 685.317 84.0818 688.275 81.92L674.963 69.0346C670.867 71.1395 668.819 73.984 668.819 77.568C668.819 79.7298 669.644 81.5502 671.294 83.0293C673 84.4515 675.276 85.1627 678.12 85.1627ZM834.09 36.0959L818.474 96H800.81L791.252 56.576L781.354 96H763.69L748.5 36.0959H764.116L772.735 79.7013L783.402 36.0959H799.444L809.684 79.7013L818.388 36.0959H834.09ZM874.005 96.5973C868.373 96.5973 863.196 95.2889 858.475 92.672C853.81 90.0551 850.083 86.4142 847.296 81.7493C844.565 77.0275 843.2 71.7369 843.2 65.8773C843.2 60.0177 844.565 54.7555 847.296 50.0906C850.083 45.4257 853.81 41.7848 858.475 39.1679C863.196 36.551 868.373 35.2426 874.005 35.2426C879.637 35.2426 884.786 36.551 889.451 39.1679C894.172 41.7848 897.87 45.4257 900.544 50.0906C903.275 54.7555 904.64 60.0177 904.64 65.8773C904.64 71.7369 903.275 77.0275 900.544 81.7493C897.813 86.4142 894.115 90.0551 889.451 92.672C884.786 95.2889 879.637 96.5973 874.005 96.5973ZM874.005 83.2853C878.784 83.2853 882.595 81.6924 885.44 78.5066C888.341 75.3209 889.792 71.1111 889.792 65.8773C889.792 60.5866 888.341 56.3768 885.44 53.248C882.595 50.0622 878.784 48.4693 874.005 48.4693C869.17 48.4693 865.301 50.0337 862.4 53.1626C859.555 56.2915 858.133 60.5297 858.133 65.8773C858.133 71.168 859.555 75.4062 862.4 78.592C865.301 81.7209 869.17 83.2853 874.005 83.2853ZM931.361 36.0959V71.936C931.361 75.52 932.242 78.2791 934.006 80.2133C935.769 82.1475 938.358 83.1147 941.771 83.1147C945.185 83.1147 947.801 82.1475 949.622 80.2133C951.442 78.2791 952.353 75.52 952.353 71.936V36.0959H966.945V71.8506C966.945 77.1982 965.807 81.7209 963.531 85.4187C961.256 89.1164 958.184 91.904 954.315 93.7813C950.504 95.6587 946.237 96.5973 941.515 96.5973C936.793 96.5973 932.555 95.6871 928.801 93.8667C925.103 91.9893 922.173 89.2018 920.011 85.504C917.849 81.7493 916.769 77.1982 916.769 71.8506V36.0959H931.361ZM1035.05 96H1020.46L996.05 59.0506V96H981.458V36.0959H996.05L1020.46 73.216V36.0959H1035.05V96ZM1072.33 36.0959C1078.65 36.0959 1084.17 37.3475 1088.89 39.8506C1093.61 42.3537 1097.25 45.8808 1099.81 50.432C1102.43 54.9262 1103.74 60.1315 1103.74 66.048C1103.74 71.9075 1102.43 77.1129 1099.81 81.664C1097.25 86.2151 1093.58 89.7422 1088.8 92.2453C1084.08 94.7484 1078.59 96 1072.33 96H1049.89V36.0959H1072.33ZM1071.4 83.3707C1076.91 83.3707 1081.21 81.8631 1084.28 78.848C1087.35 75.8329 1088.89 71.5662 1088.89 66.048C1088.89 60.5297 1087.35 56.2346 1084.28 53.1626C1081.21 50.0906 1076.91 48.5546 1071.4 48.5546H1064.48V83.3707H1071.4ZM393.8 164.352V224H387.827V164.352H393.8ZM455.711 224H449.737L416.713 173.824V224H410.74V164.352H416.713L449.737 214.443V164.352H455.711V224ZM490.744 224.597C486.819 224.597 483.349 223.915 480.333 222.549C477.375 221.184 475.043 219.278 473.336 216.832C471.629 214.386 470.719 211.655 470.605 208.64H476.92C477.205 211.541 478.485 214.101 480.76 216.32C483.036 218.482 486.364 219.563 490.744 219.563C494.783 219.563 497.969 218.539 500.301 216.491C502.691 214.386 503.885 211.74 503.885 208.555C503.885 205.995 503.231 203.947 501.923 202.411C500.614 200.818 498.993 199.652 497.059 198.912C495.125 198.116 492.451 197.262 489.037 196.352C485.055 195.271 481.898 194.219 479.565 193.195C477.233 192.171 475.242 190.578 473.592 188.416C471.942 186.254 471.117 183.324 471.117 179.627C471.117 176.555 471.914 173.824 473.507 171.435C475.1 168.988 477.347 167.083 480.248 165.717C483.149 164.352 486.477 163.669 490.232 163.669C495.75 163.669 500.188 165.035 503.544 167.765C506.957 170.439 508.92 173.909 509.432 178.176H502.947C502.549 175.73 501.212 173.568 498.936 171.691C496.661 169.756 493.589 168.789 489.72 168.789C486.136 168.789 483.149 169.756 480.76 171.691C478.371 173.568 477.176 176.156 477.176 179.456C477.176 181.959 477.83 183.979 479.139 185.515C480.447 187.051 482.069 188.217 484.003 189.013C485.994 189.81 488.668 190.663 492.024 191.573C495.893 192.654 499.021 193.735 501.411 194.816C503.8 195.84 505.82 197.433 507.469 199.595C509.119 201.756 509.944 204.658 509.944 208.299C509.944 211.086 509.205 213.732 507.725 216.235C506.246 218.738 504.056 220.757 501.155 222.293C498.253 223.829 494.783 224.597 490.744 224.597ZM559.802 164.352V169.301H543.247V224H537.273V169.301H520.633V164.352H559.802ZM578.62 164.352V224H572.647V164.352H578.62ZM630.462 164.352V169.301H613.907V224H607.934V169.301H591.294V164.352H630.462ZM649.024 164.352V201.899C649.024 207.815 650.418 212.196 653.206 215.04C656.05 217.884 659.919 219.307 664.811 219.307C669.703 219.307 673.515 217.913 676.246 215.125C679.033 212.281 680.427 207.872 680.427 201.899V164.352H686.4V201.813C686.4 209.38 684.381 215.068 680.342 218.88C676.359 222.692 671.154 224.597 664.726 224.597C658.297 224.597 653.063 222.692 649.024 218.88C645.042 215.068 643.051 209.38 643.051 201.813V164.352H649.024ZM738.038 164.352V169.301H721.484V224H715.51V169.301H698.87V164.352H738.038ZM756.857 169.216V191.488H779.47V196.437H756.857V219.051H782.03V224H750.884V164.267H782.03V169.216H756.857Z" fill="#DBEAFE"/>
</g>
<g filter="url(#filter2_d_80_275)">
<path d="M105.008 53.9414C94.9866 55.8753 84.4941 46.168 81.5726 32.2597C78.6512 18.3514 84.407 5.50879 94.4288 3.5749C104.45 1.64102 114.943 11.3482 117.864 25.2565C120.786 39.1648 115.03 52.0075 105.008 53.9414Z" fill="#DBEAFE" stroke="#DBEAFE" stroke-width="2.66965"/>
<path d="M141.413 43.5234C134.827 42.9852 129.973 35.1058 130.572 25.9243C131.171 16.7429 136.995 9.73614 143.581 10.2744C150.167 10.8126 155.021 18.6919 154.422 27.8734C153.823 37.0549 147.999 44.0616 141.413 43.5234Z" fill="#DBEAFE" stroke="#DBEAFE" stroke-width="1.72838"/>
<path d="M171.982 52.2216C166.362 49.7581 164.383 41.1379 167.562 32.9678C170.741 24.7978 177.875 20.1718 183.496 22.6353C189.117 25.0989 191.096 33.7191 187.916 41.8892C184.737 50.0592 177.603 54.6852 171.982 52.2216Z" fill="#DBEAFE" stroke="#DBEAFE" stroke-width="1.62588"/>
<path d="M198.63 66.5654C193.681 63.6342 192.821 55.39 196.709 48.1516C200.596 40.9132 207.759 37.4215 212.707 40.3528C217.655 43.2841 218.516 51.5282 214.628 58.7667C210.741 66.0051 203.578 69.4967 198.63 66.5654Z" fill="#DBEAFE" stroke="#DBEAFE" stroke-width="1.52375"/>
<path d="M222.631 84.3734C218.33 81.8855 217.583 74.8882 220.961 68.7446C224.339 62.6009 230.564 59.6373 234.865 62.1253C239.165 64.6132 239.913 71.6105 236.535 77.7542C233.156 83.8978 226.931 86.8613 222.631 84.3734Z" fill="#DBEAFE" stroke="#DBEAFE" stroke-width="1.30826"/>
<path d="M156.352 168.477C137.777 187.114 119.171 205.718 100.531 224.29L118.931 242.69C132.512 256.271 155.891 254.757 171.352 239.296C186.814 223.834 188.327 200.452 174.746 186.871L156.352 168.477Z" fill="#DBEAFE" stroke="#DBEAFE" stroke-width="3.14896"/>
<path d="M33.2145 156.973C51.7803 138.329 70.4228 119.76 89.0592 101.184L70.6538 82.7789C57.0728 69.1978 33.6937 70.7114 18.2323 86.1728C2.77082 101.634 1.25719 125.016 14.8382 138.597L33.2145 156.973Z" fill="#607DFA" stroke="#607DFA" stroke-width="3.14896"/>
<path d="M100.555 101.155C119.227 119.691 137.766 138.365 156.386 156.957L174.746 138.597C188.327 125.016 186.814 101.634 171.352 86.1728C155.891 70.7114 132.512 69.1978 118.931 82.7789L100.555 101.155Z" fill="#607DFA" stroke="#607DFA" stroke-width="3.14896"/>
<path d="M150.609 162.734L94.7937 106.919L38.9753 162.734L94.7937 218.55L150.609 162.734Z" fill="#607DFA" stroke="#607DFA" stroke-width="3.14896"/>
<path d="M89.0221 224.321C70.3634 205.772 51.8209 187.102 33.2011 168.508L14.8382 186.871C1.25719 200.452 2.77082 223.834 18.2323 239.296C33.6937 254.757 57.0728 256.271 70.6538 242.69L89.0221 224.321Z" fill="#DBEAFE" stroke="#DBEAFE" stroke-width="3.14896"/>
<path d="M98.4716 167.544C100.816 165.199 100.816 161.397 98.4715 159.053C96.1267 156.708 92.3251 156.708 89.9803 159.053C87.6354 161.397 87.6354 165.199 89.9803 167.544C92.3251 169.889 96.1268 169.889 98.4716 167.544Z" fill="#151A31" stroke="#151A31" stroke-width="1.35864"/>
<path d="M96.0864 200.845C98.4312 198.5 98.4312 194.699 96.0864 192.354C93.7415 190.009 89.9398 190.009 87.595 192.354C85.2502 194.699 85.2503 198.5 87.5951 200.845C89.9399 203.19 93.7415 203.19 96.0864 200.845Z" fill="#151A31" stroke="#151A31" stroke-width="1.35864"/>
<path d="M133.073 163.858C135.418 161.513 135.418 157.712 133.073 155.367C130.728 153.022 126.927 153.022 124.582 155.367C122.237 157.712 122.237 161.513 124.582 163.858C126.927 166.203 130.728 166.203 133.073 163.858Z" fill="#151A31" stroke="#151A31" stroke-width="1.35864"/>
<path d="M65.0027 170.102C67.3475 167.757 67.3475 163.955 65.0027 161.61C62.6578 159.265 58.8561 159.265 56.5113 161.61C54.1665 163.955 54.1665 167.757 56.5113 170.101C58.8561 172.446 62.6579 172.446 65.0027 170.102Z" fill="#151A31" stroke="#151A31" stroke-width="1.35864"/>
<path d="M101.99 133.114C104.335 130.77 104.335 126.968 101.99 124.623C99.6449 122.278 95.8432 122.278 93.4984 124.623C91.1535 126.968 91.1535 130.77 93.4983 133.114C95.8432 135.459 99.6449 135.459 101.99 133.114Z" fill="#151A31" stroke="#151A31" stroke-width="1.35864"/>
</g>
<defs>
<filter id="filter0_d_80_275" x="299" y="2" width="22" height="260" filterUnits="userSpaceOnUse" color-interpolation-filters="sRGB">
<feFlood flood-opacity="0" result="BackgroundImageFix"/>
<feColorMatrix in="SourceAlpha" type="matrix" values="0 0 0 0 0 0 0 0 0 0 0 0 0 0 0 0 0 0 127 0" result="hardAlpha"/>
<feOffset dy="4"/>
<feGaussianBlur stdDeviation="2"/>
<feComposite in2="hardAlpha" operator="out"/>
<feColorMatrix type="matrix" values="0 0 0 0 0 0 0 0 0 0 0 0 0 0 0 0 0 0 0.25 0"/>
<feBlend mode="normal" in2="BackgroundImageFix" result="effect1_dropShadow_80_275"/>
<feBlend mode="normal" in="SourceGraphic" in2="effect1_dropShadow_80_275" result="shape"/>
</filter>
<filter id="filter1_d_80_275" x="382.291" y="34.9013" width="725.446" height="197.696" filterUnits="userSpaceOnUse" color-interpolation-filters="sRGB">
<feFlood flood-opacity="0" result="BackgroundImageFix"/>
<feColorMatrix in="SourceAlpha" type="matrix" values="0 0 0 0 0 0 0 0 0 0 0 0 0 0 0 0 0 0 127 0" result="hardAlpha"/>
<feOffset dy="4"/>
<feGaussianBlur stdDeviation="2"/>
<feComposite in2="hardAlpha" operator="out"/>
<feColorMatrix type="matrix" values="0 0 0 0 0 0 0 0 0 0 0 0 0 0 0 0 0 0 0.25 0"/>
<feBlend mode="normal" in2="BackgroundImageFix" result="effect1_dropShadow_80_275"/>
<feBlend mode="normal" in="SourceGraphic" in2="effect1_dropShadow_80_275" result="shape"/>
</filter>
<filter id="filter2_d_80_275" x="-0.00982666" y="1.99821" width="243.308" height="259.539" filterUnits="userSpaceOnUse" color-interpolation-filters="sRGB">
<feFlood flood-opacity="0" result="BackgroundImageFix"/>
<feColorMatrix in="SourceAlpha" type="matrix" values="0 0 0 0 0 0 0 0 0 0 0 0 0 0 0 0 0 0 127 0" result="hardAlpha"/>
<feOffset dy="4"/>
<feGaussianBlur stdDeviation="2"/>
<feComposite in2="hardAlpha" operator="out"/>
<feColorMatrix type="matrix" values="0 0 0 0 0 0 0 0 0 0 0 0 0 0 0 0 0 0 0.25 0"/>
<feBlend mode="normal" in2="BackgroundImageFix" result="effect1_dropShadow_80_275"/>
<feBlend mode="normal" in="SourceGraphic" in2="effect1_dropShadow_80_275" result="shape"/>
</filter>
</defs>
</svg>
